<svg xmlns="http://www.w3.org/2000/svg" width="256" height="256" viewBox="0 0 256 256">
    <g transform="translate(-1027.174 -93.46)">
        <path
            d="M224.568,113s-15.47-2.52,0,12.323c.015,13.915,0,77.458,0,77.458L173.137,319.652s-10.524,23.974,18,35.934H326.519s24.215-6.752,19.334-35.934c-8.463-26.532-51.542-116.869-51.542-116.869V125.325S307.9,113,294.311,113Z"
            transform="translate(892.868 -16.639)" fill="#484747" />
        <path d="M182.54,296.838l-9.4,20.833s-10.87,25.592,17.85,37.427H329.262s21.474-8.245,16.592-37.427h0Z"
            transform="translate(892.866 -15.663)" fill="#e8e8ec" />
        <path
            d="M252.1,116.062c-9.183-22.419-19.781-22.419-28.964,0s-12.963,60.077-3.78,82.5,27.549,22.419,36.732,0S261.288,138.481,252.1,116.062Z"
            transform="translate(914.049 93.388)" fill="#43811e" />
        <path
            d="M318.289,281.775a3.032,3.032,0,0,1-3.032-3.032V256.658a3.032,3.032,0,1,1,6.064,0v22.085A3.032,3.032,0,0,1,318.289,281.775Z"
            transform="translate(834.461 40.991)" fill="#484747" />
        <path d="M321.321,283.728h-6.064v-30.1h6.064Z" transform="translate(834.461 50.022)" fill="#484747" />
        <path
            d="M224.568,113s-15.47-2.52,0,12.323c.015,13.915,0,77.458,0,77.458L173.137,319.652s-10.524,23.974,18,35.934H326.519s24.215-6.752,19.334-35.934c-8.463-26.532-51.542-116.869-51.542-116.869V125.325S307.9,113,294.311,113Z"
            transform="translate(892.868 -16.639)" fill="none" />
        <path
            d="M251.767,115.968c-9.183-22.419-5.819,7.957-5.332,21.725s5.2,26.2,7.28,33.348c3.749,12.894-3.026,46.433,2.039,27.423S260.95,138.387,251.767,115.968Z"
            transform="translate(914.386 93.482)" fill="#549623" />
        <path
            d="M237.65,96.748c3.242,0,6.365,1.708,9.283,5.076,2.625,3.029,5.161,7.507,7.537,13.308,4.758,11.616,8.062,26.939,9.064,42.038a128.847,128.847,0,0,1-.361,22.5,74.149,74.149,0,0,1-4.716,19.877c-2.378,5.806-5.4,10.362-8.983,13.542a16.612,16.612,0,0,1-23.443,0c-3.582-3.18-6.6-7.737-8.983-13.542a74.887,74.887,0,0,1-4.748-19.87,129.343,129.343,0,0,1-.433-22.495c.953-15.145,4.219-30.471,8.961-42.047,2.376-5.8,4.912-10.278,7.537-13.308C231.285,98.455,234.408,96.748,237.65,96.748Zm.1,116.124a10.807,10.807,0,0,0,4.16-.857,15.155,15.155,0,0,0,4.207-2.709,24.509,24.509,0,0,0,4.058-4.765,39.6,39.6,0,0,0,3.6-6.914,69.159,69.159,0,0,0,4.369-18.514,123.806,123.806,0,0,0,.341-21.609c-.968-14.579-4.138-29.325-8.7-40.458-2.168-5.292-4.415-9.3-6.68-11.914-1.916-2.211-3.754-3.331-5.464-3.331s-3.549,1.121-5.464,3.331c-2.265,2.614-4.512,6.622-6.68,11.914-4.542,11.088-7.674,25.831-8.594,40.449a124.275,124.275,0,0,0,.412,21.611,69.887,69.887,0,0,0,4.4,18.521,39.6,39.6,0,0,0,3.6,6.914,24.516,24.516,0,0,0,4.058,4.765,15.154,15.154,0,0,0,4.206,2.709A10.808,10.808,0,0,0,237.753,212.872Z"
            transform="translate(914.022 93.361)" fill="#484747" />
    </g>
</svg>