<svg xmlns="http://www.w3.org/2000/svg" width="256" height="256" viewBox="0 0 256 256">
  <g id="Group_188" data-name="Group 188" transform="translate(-1026.571 -92.857)">
    <path id="Path_159" data-name="Path 159"
      d="M224,113s-15.3-2.493,0,12.192c.015,13.767,0,76.633,0,76.633L173.117,317.449S162.7,341.168,190.929,353H324.865s23.957-6.68,19.128-35.551C335.62,291.2,293,201.825,293,201.825V125.192S306.443,113,293,113Z"
      transform="translate(897 -12.143)" fill="#ebebeb" />
    <path id="Path_164" data-name="Path 164"
      d="M182.419,296.838l-9.3,20.611s-10.754,25.32,17.66,37.028h136.8s21.245-8.157,16.416-37.028h0Z"
      transform="translate(897 -13.137)" fill="#5f6165" />
    <path id="Path_161" data-name="Path 161"
      d="M251.7,115.883c-9.085-22.18-19.571-22.18-28.656,0S210.219,175.32,219.3,197.5s27.255,22.18,36.34,0S260.785,138.063,251.7,115.883Z"
      transform="translate(917.5 96.857)" fill="#43811e" />
    <path id="Path_165" data-name="Path 165"
      d="M318.256,281.475a3,3,0,0,1-3-3V256.626a3,3,0,0,1,6,0v21.849A3,3,0,0,1,318.256,281.475Z"
      transform="translate(837.682 43.373)" fill="#ebebeb" />
    <path id="Path_166" data-name="Path 166" d="M321.256,283.407h-6V253.626h6Z" transform="translate(837.682 52.308)"
      fill="#ebebeb" />
    <path id="Path_160" data-name="Path 160"
      d="M224,113s-15.3-2.493,0,12.192c.015,13.767,0,76.633,0,76.633L173.117,317.449S162.7,341.168,190.929,353H324.865s23.957-6.68,19.128-35.551C335.62,291.2,293,201.825,293,201.825V125.192S306.443,113,293,113Z"
      transform="translate(897 -12.143)" fill="none" />
    <path id="Path_162" data-name="Path 162"
      d="M251.7,115.883c-9.085-22.18-5.757,7.872-5.275,21.493s5.148,25.926,7.2,32.993c3.709,12.756-2.994,45.939,2.018,27.131S260.785,138.063,251.7,115.883Z"
      transform="translate(917.5 96.857)" fill="#549623" />
    <path id="Path_163" data-name="Path 163"
      d="M237.372,96.748c3.207,0,6.3,1.689,9.185,5.022,2.6,3,5.106,7.427,7.457,13.166,4.707,11.492,7.976,26.652,8.967,41.591a127.456,127.456,0,0,1-.357,22.257,73.364,73.364,0,0,1-4.666,19.665c-2.353,5.744-5.343,10.252-8.887,13.4a16.435,16.435,0,0,1-23.193,0c-3.544-3.147-6.534-7.654-8.887-13.4a74.091,74.091,0,0,1-4.7-19.658,127.957,127.957,0,0,1-.429-22.255c.943-14.984,4.174-30.146,8.865-41.6,2.351-5.739,4.86-10.169,7.457-13.166C231.075,98.437,234.165,96.748,237.372,96.748Zm.1,114.887a10.693,10.693,0,0,0,4.116-.848,15,15,0,0,0,4.162-2.68,24.248,24.248,0,0,0,4.015-4.714,39.176,39.176,0,0,0,3.565-6.84,68.423,68.423,0,0,0,4.322-18.317,122.463,122.463,0,0,0,.338-21.379c-.957-14.423-4.094-29.012-8.605-40.027-2.144-5.235-4.368-9.2-6.609-11.787-1.9-2.187-3.714-3.3-5.406-3.3s-3.511,1.109-5.406,3.3c-2.241,2.586-4.464,6.551-6.609,11.787-4.493,10.97-7.592,25.556-8.5,40.018a122.959,122.959,0,0,0,.407,21.381,69.147,69.147,0,0,0,4.355,18.323,39.177,39.177,0,0,0,3.565,6.84,24.249,24.249,0,0,0,4.015,4.714,15,15,0,0,0,4.162,2.68A10.693,10.693,0,0,0,237.475,211.635Z"
      transform="translate(917.5 96.857)" fill="#ebebeb" />
  </g>
</svg>