<svg width="512" height="512" xmlns="http://www.w3.org/2000/svg">
<g>
  <path d="m450.45217,309.94695l-148.73401,148.73401a38.21846,38.21846 0 0 1 -49.19802,4.43982a39.53841,39.53841 0 0 1 -15.89936,-32.3387l0,-56.39773a3.83985,3.83985 0 0 0 -1.13995,-2.75989l-105.17577,-105.17577a13.91944,13.91944 0 0 1 0,-19.73921l5.99976,-5.99976a14.03943,14.03943 0 0 1 19.73921,0l77.27689,77.21689a1.91992,1.91992 0 0 0 3.29987,-1.37994l0,-49.01803a3.83985,3.83985 0 0 0 -1.13995,-2.69989l-51.47793,-51.83791a13.85944,13.85944 0 0 1 0,-19.67921l6.83972,-7.3797a13.85944,13.85944 0 0 1 19.67921,0l22.79908,22.79908a1.91992,1.91992 0 0 0 3.29987,-1.37994l0,-59.99758a13.97944,13.97944 0 0 1 13.97944,-13.97944l10.79957,0a13.97944,13.97944 0 0 1 13.97944,13.97944l0,60.23757a1.91992,1.91992 0 0 0 3.29987,1.37994l22.79908,-22.79908a13.85944,13.85944 0 0 1 19.67921,0l7.13971,7.13971a13.85944,13.85944 0 0 1 0,19.67921l-51.77792,51.83791a3.83985,3.83985 0 0 0 -1.13995,2.69989l0,49.618a1.91992,1.91992 0 0 0 3.29987,1.37994l77.57688,-77.57688a13.85944,13.85944 0 0 1 19.67921,0l7.13971,7.13971a13.85944,13.85944 0 0 1 0,19.67921l-106.55571,106.55571a4.07984,4.07984 0 0 0 -1.13995,2.75989l0,48.83803a1.91992,1.91992 0 0 0 3.29987,1.31995l144.89417,-144.65418a34.8586,34.8586 0 0 0 0,-49.31801l-142.91425,-142.97424a34.97859,34.97859 0 0 0 -49.31801,0l-142.91425,142.97424a34.8586,34.8586 0 0 0 0,49.31801l108.71562,108.71562a13.73945,13.73945 0 0 1 3.95984,9.59961l0,32.03871a6.95972,6.95972 0 0 1 -11.99952,4.9798l-127.55486,-127.97485a73.55704,73.55704 0 0 1 0,-104.03581l142.43427,-142.43427a73.55704,73.55704 0 0 1 104.03581,0l142.43427,142.43427a73.55704,73.55704 0 0 1 0,104.03581z" fill="#6aefa6"/>
</g>
</svg>