<svg width="512" height="512" xmlns="http://www.w3.org/2000/svg">
<style>
  rect {
    fill: transparent;
  }
  @media (prefers-color-scheme: light) {
    rect {
      fill: #111928;
    }
  }
</style>
<g>
  <rect height="512" width="512"/>
  <path id="svg_2" d="m464.85592,313.94296l-159.75125,159.75125a41.04943,41.04943 0 0 1 -52.84229,4.76869a42.46715,42.46715 0 0 1 -17.07708,-34.73414l0,-60.5753a4.12428,4.12428 0 0 0 -1.22439,-2.96432l-112.9665,-112.9665a14.9505,14.9505 0 0 1 0,-21.20136l6.44418,-6.44418a15.07938,15.07938 0 0 1 21.20136,0l83.00105,82.93661a2.06214,2.06214 0 0 0 3.5443,-1.48216l0,-52.64896a4.12428,4.12428 0 0 0 -1.22439,-2.89988l-55.29107,-55.67773a14.88606,14.88606 0 0 1 0,-21.13691l7.34637,-7.92634a14.88606,14.88606 0 0 1 21.13691,0l24.48789,24.48789a2.06214,2.06214 0 0 0 3.5443,-1.48216l0,-64.44181a15.01494,15.01494 0 0 1 15.01494,-15.01494l11.59953,0a15.01494,15.01494 0 0 1 15.01494,15.01494l0,64.69958a2.06214,2.06214 0 0 0 3.5443,1.48216l24.48789,-24.48789a14.88606,14.88606 0 0 1 21.13691,0l7.66858,7.66858a14.88606,14.88606 0 0 1 0,21.13691l-55.61328,55.67773a4.12428,4.12428 0 0 0 -1.22439,2.89988l0,53.29338a2.06214,2.06214 0 0 0 3.5443,1.48216l83.32326,-83.32326a14.88606,14.88606 0 0 1 21.13691,0l7.66858,7.66858a14.88606,14.88606 0 0 1 0,21.13691l-114.44866,114.44866a4.38204,4.38204 0 0 0 -1.22439,2.96432l0,52.45563a2.06214,2.06214 0 0 0 3.5443,1.41772l155.62697,-155.36921a37.44069,37.44069 0 0 0 0,-52.97117l-153.5004,-153.56484a37.56958,37.56958 0 0 0 -52.97117,0l-153.5004,153.56484a37.44069,37.44069 0 0 0 0,52.97117l116.76856,116.76856a14.75717,14.75717 0 0 1 4.25316,10.31069l0,34.41193a7.47525,7.47525 0 0 1 -12.88836,5.34867l-137.00329,-137.45438a79.00566,79.00566 0 0 1 0,-111.7421l152.98486,-152.98486a79.00566,79.00566 0 0 1 111.7421,0l152.98486,152.98486a79.00566,79.00566 0 0 1 0,111.7421z" fill="#6aefa6"/>
</g>
</svg>