<?xml version="1.0" standalone="no"?>
<!DOCTYPE svg PUBLIC "-//W3C//DTD SVG 20010904//EN"
 "http://www.w3.org/TR/2001/REC-SVG-20010904/DTD/svg10.dtd">
<svg version="1.0" xmlns="http://www.w3.org/2000/svg"
 width="200.000000pt" height="200.000000pt" viewBox="0 0 200.000000 200.000000"
 preserveAspectRatio="xMidYMid meet">
<metadata>
Created by potrace 1.11, written by Peter Selinger 2001-2013
</metadata>
<g transform="translate(0.000000,200.000000) scale(0.100000,-0.100000)"
fill="#000000" stroke="none">
<path d="M1116 1643 l-330 -333 -33 32 -33 32 -125 -124 c-69 -69 -125 -128
-125 -133 0 -4 74 -82 165 -172 l165 -165 -103 0 -103 0 -1 -146 c0 -80 -4
-173 -7 -207 -8 -74 -46 -219 -80 -302 l-24 -60 -131 -1 c-150 -2 -164 -5
-159 -36 l3 -23 421 -3 c369 -2 423 0 428 13 12 32 -9 51 -49 46 -7 0 -10 27
-10 72 2 88 -1 97 -30 97 -29 0 -35 -16 -35 -100 l0 -68 -35 0 c-19 0 -36 3
-36 6 -1 4 -2 53 -3 110 -1 109 -11 131 -47 111 -14 -7 -17 -23 -17 -81 0
-159 3 -147 -39 -145 l-38 2 -1 50 c0 56 -7 74 -27 71 -29 -4 -37 -19 -37 -72
l0 -55 -37 2 c-21 1 -41 4 -44 6 -4 1 4 30 18 64 48 120 74 261 78 429 3 154
3 155 26 158 21 2 24 -1 23 -30 -2 -41 11 -67 32 -64 22 3 34 25 34 64 0 29 3
32 30 32 l30 0 0 -74 c0 -78 7 -92 40 -81 18 6 20 15 20 80 l0 73 93 -1 92 -1
5 -105 c4 -93 7 -106 24 -109 32 -6 38 14 38 115 l0 99 29 2 c22 2 29 -2 30
-15 1 -10 2 -29 3 -43 2 -34 13 -50 36 -50 21 0 30 26 27 75 -2 25 2 30 21 31
21 1 22 -2 23 -80 1 -214 31 -385 89 -522 11 -24 16 -45 12 -47 -4 -2 -24 -5
-44 -6 l-38 -2 0 54 c0 58 -15 82 -44 71 -17 -6 -18 -12 -20 -79 -1 -24 -6
-40 -13 -41 -7 -1 -19 -2 -27 -3 -18 -1 -27 -36 -13 -50 7 -7 108 -11 308 -11
294 0 298 0 304 21 4 12 3 25 -3 31 -5 5 -80 10 -170 10 l-161 1 -30 71 c-61
149 -84 287 -85 509 l0 137 -111 0 -110 0 103 103 102 102 -98 98 c-90 90
-100 97 -113 81 -21 -26 -86 -52 -120 -48 -34 4 -80 26 -97 47 -9 11 41 65
253 278 214 213 266 270 269 295 2 17 1 36 -3 42 -4 7 -122 -104 -292 -274
l-285 -284 -22 22 -21 23 311 313 c270 274 310 318 312 347 2 18 0 38 -3 43
-3 5 -154 -141 -335 -325z m-301 -454 c50 -50 108 -100 129 -111 53 -27 111
-29 170 -6 46 18 50 18 68 1 18 -16 15 -21 -119 -155 -76 -76 -146 -138 -155
-138 -16 0 -348 321 -348 337 0 9 152 163 160 163 3 0 46 -41 95 -91z m353
-306 c-76 -76 -109 -103 -128 -103 -21 0 -9 16 90 115 90 91 117 112 128 103
11 -9 -7 -31 -90 -115z"/>
<path d="M629 1137 c-9 -17 -8 -23 7 -34 23 -17 29 -16 44 2 16 19 7 41 -19
48 -15 4 -25 -1 -32 -16z"/>
<path d="M494 1042 c-14 -9 -34 -47 -34 -64 0 -17 69 -92 93 -101 21 -8 64 10
72 31 8 22 -24 54 -43 43 -21 -12 -57 26 -42 44 12 15 -30 58 -46 47z"/>
<path d="M1210 561 c-7 -15 -6 -23 5 -35 28 -27 69 10 44 40 -16 20 -37 17
-49 -5z"/>
<path d="M834 516 c-10 -26 4 -48 28 -44 17 2 23 10 23 28 0 18 -6 26 -23 28
-13 2 -25 -3 -28 -12z"/>
<path d="M44 52 c-31 -30 -8 -54 47 -50 33 2 45 7 47 22 2 10 -1 23 -6 28 -15
15 -73 16 -88 0z"/>
<path d="M1108 53 c-20 -22 -7 -53 21 -53 28 0 35 30 13 52 -18 18 -19 18 -34
1z"/>
<path d="M1882 48 c-15 -15 3 -48 28 -48 19 0 36 32 25 50 -8 14 -38 13 -53
-2z"/>
</g>
</svg>
