<?xml version="1.0" standalone="no"?>
<!DOCTYPE svg PUBLIC "-//W3C//DTD SVG 20010904//EN"
 "http://www.w3.org/TR/2001/REC-SVG-20010904/DTD/svg10.dtd">
<svg version="1.0" xmlns="http://www.w3.org/2000/svg"
 width="700.000000pt" height="700.000000pt" viewBox="0 0 700.000000 700.000000"
 preserveAspectRatio="xMidYMid meet">
<metadata>
Created by potrace 1.14, written by Peter Selinger 2001-2017
</metadata>
<g transform="translate(0.000000,700.000000) scale(0.100000,-0.100000)"
fill="#000000" stroke="none">
<path d="M3447 6644 c-1 -1 -27 -4 -57 -7 -199 -22 -391 -98 -544 -216 -39
-30 -566 -550 -1171 -1155 -1180 -1181 -1163 -1162 -1250 -1351 -65 -140 -88
-247 -89 -420 -1 -82 3 -172 7 -200 27 -167 100 -336 211 -485 15 -19 465
-476 1002 -1016 726 -731 983 -984 1008 -991 42 -13 87 4 112 43 16 24 18 54
18 298 0 241 -2 275 -19 309 -11 25 -319 339 -855 876 -758 758 -840 843 -869
902 -80 163 -82 307 -5 469 34 74 56 96 1147 1186 1200 1198 1138 1142 1282
1181 128 35 319 0 420 -77 11 -8 514 -507 1117 -1110 1052 -1050 1099 -1098
1137 -1171 48 -95 65 -170 58 -268 -6 -86 -25 -152 -70 -231 -23 -42 -292
-316 -1121 -1143 -644 -642 -1097 -1087 -1108 -1087 -10 0 -19 6 -19 13 -7 69
-3 736 4 751 6 11 369 379 808 819 736 736 800 802 813 846 18 62 13 113 -18
164 -32 55 -157 173 -204 193 -46 19 -116 16 -162 -7 -19 -9 -299 -281 -621
-603 -323 -322 -591 -586 -597 -586 -6 0 -14 6 -19 13 -10 16 -12 747 -2 768
5 9 181 189 392 400 210 211 393 399 406 417 28 40 38 125 21 178 -19 57 -171
206 -230 225 -55 19 -106 17 -152 -5 -19 -9 -113 -96 -209 -192 -187 -188
-205 -202 -222 -185 -8 8 -12 147 -13 479 -1 257 -4 474 -6 482 -9 33 -39 79
-68 104 -46 38 -98 48 -236 44 -117 -3 -124 -4 -166 -33 -27 -19 -52 -48 -68
-80 l-24 -50 -2 -465 c-1 -256 -2 -468 -3 -471 0 -4 -8 -9 -16 -13 -10 -3 -76
56 -197 177 -101 101 -195 190 -209 199 -38 24 -108 32 -160 18 -35 -10 -61
-30 -128 -98 -46 -47 -90 -102 -99 -122 -23 -55 -22 -122 2 -169 12 -24 181
-202 414 -437 215 -217 393 -401 393 -407 6 -59 3 -736 -3 -749 -5 -10 -14
-18 -20 -18 -6 0 -273 262 -593 582 -341 340 -599 590 -621 601 -35 18 -95 24
-134 14 -44 -12 -76 -32 -131 -84 -75 -71 -111 -130 -114 -186 -4 -100 -34
-66 821 -922 437 -436 795 -797 795 -802 1 -4 2 -215 3 -468 2 -456 4 -488 33
-575 115 -352 539 -494 845 -282 55 38 2297 2279 2353 2352 97 126 171 287
204 445 29 132 23 353 -12 485 -30 117 -90 246 -159 348 -72 106 -2237 2273
-2348 2351 -125 88 -307 168 -422 185 -91 14 -253 26 -261 20z"/>
</g>
</svg>
